<svg width="192" height="193" viewBox="0 0 192 193" fill="none" xmlns="http://www.w3.org/2000/svg">
<path d="M95.9216 0.939453C43.0409 0.939453 0.017334 43.9654 0.017334 96.8507C0.0585265 102.354 0.562331 107.843 1.52343 113.262C1.52343 113.295 1.58153 113.281 1.59315 113.308C1.77198 113.975 2.16426 114.564 2.70995 114.987C3.25564 115.409 3.92467 115.641 4.61464 115.647C5.46243 115.646 6.27529 115.309 6.87455 114.709C7.47381 114.109 7.81044 113.296 7.81044 112.449C7.79534 112.345 7.77439 112.243 7.74768 112.142L7.80346 112.116C6.90422 107.078 6.43768 101.973 6.40894 96.8553C6.40894 47.4192 46.4854 7.34268 95.9193 7.34268C145.353 7.34268 185.434 47.4238 185.434 96.8553C185.434 146.287 145.358 186.366 95.9216 186.366C62.8851 186.366 34.0974 168.418 18.5971 141.789C18.5971 141.773 18.5762 141.764 18.5716 141.748C18.5297 141.678 18.4833 141.61 18.4437 141.541C18.1792 141.028 17.7796 140.597 17.288 140.295C16.7964 139.994 16.2316 139.832 15.6547 139.828C14.8073 139.828 13.9948 140.165 13.3956 140.765C12.7964 141.364 12.4595 142.176 12.4589 143.024C12.4736 143.682 12.6966 144.319 13.0957 144.843L13.0423 144.876C29.6674 173.464 60.5516 192.755 95.9262 192.755C148.805 192.755 191.828 149.736 191.828 96.8507C191.828 43.9654 148.805 0.939453 95.9216 0.939453Z" fill="#B3DC72"/>
<path d="M95.9239 109.58C115.057 109.58 130.627 125.153 130.627 144.283H137.021C137.021 121.625 118.585 103.187 95.9239 103.187C73.2627 103.187 54.8247 121.625 54.8247 144.283H61.2186C61.2186 125.148 76.7793 109.58 95.9239 109.58Z" fill="#B3DC72"/>
<path d="M54.8247 144.283C54.8247 145.131 55.1614 145.944 55.7607 146.543C56.3601 147.142 57.1729 147.479 58.0205 147.479C58.8681 147.479 59.681 147.142 60.2803 146.543C60.8796 145.944 61.2163 145.131 61.2163 144.283C61.2163 143.436 60.8796 142.623 60.2803 142.024C59.681 141.424 58.8681 141.088 58.0205 141.088C57.1729 141.088 56.3601 141.424 55.7607 142.024C55.1614 142.623 54.8247 143.436 54.8247 144.283Z" fill="#B3DC72"/>
<path d="M130.627 144.283C130.627 145.131 130.963 145.944 131.563 146.543C132.162 147.142 132.975 147.479 133.823 147.479C134.67 147.479 135.483 147.142 136.082 146.543C136.682 145.944 137.018 145.131 137.018 144.283C137.018 143.436 136.682 142.623 136.082 142.024C135.483 141.424 134.67 141.088 133.823 141.088C132.975 141.088 132.162 141.424 131.563 142.024C130.963 142.623 130.627 143.436 130.627 144.283Z" fill="#B3DC72"/>
<path d="M83.7352 99.1486C88.4771 103.891 94.9085 106.554 101.615 106.554C108.321 106.554 114.752 103.891 119.494 99.1486C124.236 94.4067 126.9 87.9754 126.9 81.2693C126.9 74.5633 124.236 68.1319 119.494 63.39C117.146 61.042 114.358 59.1796 111.291 57.9089C108.223 56.6382 104.935 55.9841 101.615 55.9841C94.9085 55.9841 88.4771 58.6481 83.7352 63.39C81.3873 65.7379 79.5248 68.5253 78.2541 71.5931C76.9834 74.6608 76.3293 77.9488 76.3293 81.2693C76.3293 87.9754 78.9933 94.4067 83.7352 99.1486Z" fill="#B3DC72" fill-opacity="0.5"/>
<path d="M95.9216 109.578C78.4551 109.578 64.2449 95.3678 64.2449 77.8989C64.2449 60.4301 78.4551 46.2198 95.9216 46.2198C113.388 46.2198 127.601 60.4324 127.601 77.8989C127.601 95.3655 113.39 109.578 95.9216 109.578ZM95.9216 52.6138C90.9202 52.6138 86.031 54.0969 81.8724 56.8756C77.7139 59.6544 74.4727 63.6039 72.5588 68.2247C70.6449 72.8455 70.1443 77.9301 71.1202 82.8355C72.0961 87.7408 74.5048 92.2466 78.0415 95.7831C81.5783 99.3195 86.0843 101.728 90.9897 102.703C95.8952 103.679 100.98 103.178 105.6 101.263C110.221 99.3489 114.17 96.1074 116.949 91.9486C119.727 87.7897 121.21 82.9004 121.209 77.8989C121.201 71.195 118.534 64.7679 113.794 60.0276C109.053 55.2874 102.626 52.6212 95.9216 52.6138Z" fill="#B3DC72"/>
</svg>
