<svg class="header-icon" width="60" height="60" viewBox="0 0 60 60" xmlns="http://www.w3.org/2000/svg">
  <path d="M10.9249 0H49.0751C52.0231 0 54.7977 1.21387 56.8786 3.2948C58.7861 5.20231 60 7.97688 60 10.9249V49.0751C60 52.0231 58.7861 54.7977 56.8786 56.8786C54.7977 58.7861 52.0231 60 49.0751 60H10.9249C7.97688 60 5.20231 58.7861 3.2948 56.8786C1.21387 54.7977 0 52.0231 0 49.0751V10.9249C0 7.97688 1.21387 5.20231 3.2948 3.2948C5.20231 1.21387 7.97688 0 10.9249 0ZM6.24277 14.5665H15.4335V5.37572H17.341V14.5665H26.5318V16.474H17.341V25.6647H15.4335V16.474H6.24277V14.5665ZM9.88439 38.1503L16.3006 44.5665L22.8902 38.1503L24.2775 39.5376L17.6879 45.9538L24.2775 52.5434L22.8902 53.9306L16.3006 47.341L9.88439 53.9306L8.49711 52.5434L14.9133 45.9538L8.49711 39.5376L9.88439 38.1503ZM37.8035 14.5665H53.4104V16.474H37.8035V14.5665ZM38.3237 44.0462H52.1965V46.1272H38.3237V44.0462ZM45.4335 47.8613C46.8208 47.8613 48.0347 48.9017 48.0347 50.4624C48.0347 51.8497 46.8208 52.8902 45.4335 52.8902C43.8728 52.8902 42.8324 51.8497 42.8324 50.4624C42.8324 48.9017 43.8728 47.8613 45.4335 47.8613ZM45.4335 37.2832C46.8208 37.2832 48.0347 38.3237 48.0347 39.711C48.0347 41.2717 46.8208 42.3121 45.4335 42.3121C43.8728 42.3121 42.8324 41.2717 42.8324 39.711C42.8324 38.3237 43.8728 37.2832 45.4335 37.2832ZM31.0405 2.08092V28.9595H58.0925V10.9249C58.0925 8.49711 57.052 6.24277 55.3179 4.68208C53.7572 2.94798 51.5029 2.08092 49.0751 2.08092H31.0405ZM31.0405 31.0405V58.0925H49.0751C51.5029 58.0925 53.7572 57.052 55.3179 55.3179C57.052 53.7572 58.0925 51.5029 58.0925 49.0751V31.0405H31.0405ZM28.9595 58.0925V31.0405H2.08092V49.0751C2.08092 51.5029 2.94798 53.7572 4.68208 55.3179C6.24277 57.052 8.49711 58.0925 10.9249 58.0925H28.9595ZM28.9595 28.9595V2.08092H10.9249C8.49711 2.08092 6.24277 2.94798 4.68208 4.68208C2.94798 6.24277 2.08092 8.49711 2.08092 10.9249V28.9595H28.9595Z"/>
</svg>
