<svg class="header-icon" width="60" height="60" viewBox="0 0 60 60" xmlns="http://www.w3.org/2000/svg">
  <path d="M20.7143 37.619C23.5714 40.9524 26.9048 44.0476 30.4762 46.1905C33.5714 48.3333 36.6667 49.5238 39.0476 49.5238C40.9524 49.2857 42.8571 48.5714 44.2857 47.381C45.6205 46.4276 46.4971 45.1687 47.0379 43.9714C47.2959 43.4002 47.4464 42.7859 47.5004 42.1615C47.5963 41.0539 47.515 39.978 47.1429 39.0476C46.9048 38.3333 46.4286 37.619 45.4762 37.381L39.9681 35.8072C39.3875 35.6413 38.3653 35.8885 38.0952 36.4286V36.4286C37.619 37.1429 37.1429 37.8571 36.9048 38.8095C36.6941 39.4415 36.6698 40.2599 36.8319 40.7699C36.8712 40.8933 36.9048 41.0198 36.9048 41.1492V41.1492C36.9048 41.7392 36.3089 42.1426 35.7611 41.9235L35.7143 41.9048C33.5714 41.1905 31.6667 40.2381 29.7619 38.8095C27.8571 37.619 26.4286 35.9524 25 34.2857C23.3333 32.381 22.1429 30.4762 21.1905 28.5714C20.2524 26.4607 19.7763 24.35 19.3072 22.2393C19.2929 22.1752 19.2857 22.1097 19.2857 22.044V21.9965C19.2857 21.3823 19.906 20.9624 20.4762 21.1905V21.1905C21.1905 21.4286 21.9048 21.4286 22.8571 21.4286C23.3211 21.4286 23.8856 21.3281 24.42 21.1924C24.9703 21.0527 25.5282 20.8777 25.9798 20.5335C26.109 20.435 26.1905 20.3366 26.1905 20.2381L25.7143 13.3333C25.7143 12.9354 25.6311 12.579 25.4822 12.2816C25.0903 11.4986 24.158 11.1602 23.3268 10.885C22.4272 10.5872 21.4517 10.4762 20.4762 10.4762C19.0476 10.4762 17.1429 11.1905 15.7143 12.619C14.2857 13.8095 13.0952 15.4762 12.619 17.381C12.1429 19.7619 12.619 22.8571 14.0476 26.4286C15.7143 30.2381 18.0952 34.2857 20.7143 37.619ZM10.9524 0H49.0476C51.9048 0 54.7619 1.19048 56.6667 3.33333C58.8095 5.2381 60 7.85714 60 10.9524V49.0476C60 51.9048 58.8095 54.7619 56.6667 56.6667C54.7619 58.8095 51.9048 60 49.0476 60H10.9524C7.85714 60 5.2381 58.8095 3.33333 56.6667C1.19048 54.7619 0 51.9048 0 49.0476V10.9524C0 7.85714 1.19048 5.2381 3.33333 3.33333C5.2381 1.19048 7.85714 0 10.9524 0ZM49.0476 1.90476H10.9524C8.89793 1.90476 6.84347 2.79113 5.24791 3.952C4.75103 4.31351 4.31351 4.75103 3.952 5.24791C2.79113 6.84347 1.90476 8.89793 1.90476 10.9524V49.0476C1.90476 51.4286 3.09524 53.8095 4.52381 55.2381C6.19048 56.9048 8.57143 57.8571 10.9524 57.8571H49.0476C51.0969 57.8571 53.1462 57.1516 54.5882 55.8924C55.051 55.4882 55.4882 55.051 55.8924 54.5882C57.1516 53.1462 57.8571 51.0969 57.8571 49.0476V10.9524C57.8571 8.57143 56.9048 6.19048 55.2381 4.52381C53.8095 3.09524 51.4286 1.90476 49.0476 1.90476ZM34.8875 13.2806C34.9507 12.7755 35.3974 12.4046 35.9031 12.4626C39.0957 12.829 41.89 13.9922 44.2857 15.9524C46.2527 17.9194 47.8184 20.4882 48.4305 23.6589C48.5251 24.1488 48.2056 24.6153 47.7215 24.7363V24.7363C47.1574 24.8773 46.5983 24.4977 46.4746 23.9295C45.869 21.1464 44.5515 19.0753 42.8571 17.381C40.9351 15.886 38.6299 14.7742 35.7698 14.3891C35.2242 14.3157 34.8193 13.8269 34.8875 13.2806V13.2806ZM34.1749 17.5533C34.2382 17.0468 34.6698 16.6607 35.1784 16.7047C37.3987 16.8972 39.2686 17.8124 40.9524 19.2857C42.432 20.554 43.5363 22.1976 43.9322 24.5496C44.0187 25.064 43.639 25.5273 43.1214 25.592V25.592C42.5831 25.6593 42.1003 25.2711 41.9793 24.7423C41.5947 23.061 40.7286 21.7183 39.5238 20.7143C38.325 19.7153 36.7909 19.0516 35.0622 18.7233C34.5077 18.618 34.1049 18.1133 34.1749 17.5533V17.5533ZM29.5238 47.619C25.9524 45.2381 22.381 42.1429 19.5238 38.5714C16.6667 35.2381 14.2857 30.9524 12.619 26.9048C11.1905 23.3333 10.4762 19.5238 11.1905 16.9048C11.6667 14.7619 12.8571 12.8571 14.5238 11.4286C16.4286 9.7619 18.5714 8.80952 20.4762 8.80952C22.1429 8.80952 23.8095 9.04762 25.2381 10C26.4286 10.7143 27.1429 11.6667 27.381 13.3333L27.8571 20V20C27.8571 20.5117 27.5645 20.9979 27.2169 21.3735C26.9693 21.641 26.6375 21.8751 26.245 22.0992C25.8976 22.2976 25.5247 22.4473 25.138 22.5496C24.4828 22.7231 23.6644 22.8966 22.9589 23.07C22.8913 23.0866 22.8359 23.0953 22.7662 23.0952V23.0952C22.0854 23.094 21.3123 23.7619 21.461 24.4264C21.728 25.6193 22.114 26.6787 22.619 27.8571C23.5714 29.7619 24.7619 31.4286 26.1905 33.0952C27.619 34.7619 29.0476 36.4286 30.7143 37.619C31.7138 38.2854 32.7134 38.8352 33.7945 39.35C34.4712 39.6722 35.1474 39.1265 35.4312 38.4329V38.4329C35.46 38.3624 35.4852 38.296 35.505 38.2224C35.6012 37.8647 35.7297 37.507 35.8779 37.1493C36.3469 36.0172 37.0039 34.8842 38.0671 34.2751C38.3146 34.1334 38.5621 34.0476 38.8095 34.0476C38.8095 34.0476 38.8095 34.0476 38.8095 34.0476V34.0476C38.8095 34.0476 39.4398 34.0916 39.7436 34.1784L45.9524 35.9524C47.381 36.1905 48.3333 37.1429 48.8095 38.5714C49.2857 40 49.0476 41.9048 48.8095 43.3333C48.5714 45.2381 47.1429 47.1429 45.2381 48.5714C43.5714 50 41.4286 50.9524 39.0476 50.9524C36.4286 51.1905 33.0952 49.7619 29.5238 47.619Z"/>
</svg>
