<svg class="header-icon" width="60" height="60" viewBox="0 0 60 60" xmlns="http://www.w3.org/2000/svg">
  <path d="M30.0472 30.6142C34.8661 30.6142 39.2126 32.2205 42.3307 34.7717C45.6378 37.3228 47.622 41.0079 47.622 44.9764C47.622 45.0709 47.622 45.1654 47.622 45.3543C47.622 45.4488 47.622 45.6378 47.622 45.7323L47.5276 46.6772H12.4724L12.378 45.7323C12.378 45.6378 12.378 45.4488 12.378 45.3543C12.378 45.1654 12.378 45.0709 12.378 44.9764C12.378 41.0079 14.3622 37.3228 17.6693 34.7717C20.7874 32.2205 25.2283 30.6142 30.0472 30.6142ZM10.9606 0H49.0394C52.063 0 54.8032 1.22835 56.7874 3.2126C58.7717 5.19685 60 7.93701 60 10.9606V49.0394C60 52.063 58.7717 54.8032 56.7874 56.7874C54.8032 58.7717 52.063 60 49.0394 60H10.9606C7.93701 60 5.19685 58.7717 3.2126 56.7874C1.22835 54.8032 0 52.063 0 49.0394V10.9606C0 7.93701 1.22835 5.19685 3.2126 3.2126C5.19685 1.22835 7.93701 0 10.9606 0ZM49.0394 1.98425H10.9606C8.50394 1.98425 6.23622 3.02362 4.62992 4.62992C3.02362 6.23622 1.98425 8.50394 1.98425 10.9606V49.0394C1.98425 51.4961 3.02362 53.7638 4.62992 55.3701C6.23622 56.9764 8.50394 58.0157 10.9606 58.0157H49.0394C51.4961 58.0157 53.7638 56.9764 55.3701 55.3701C56.9764 53.7638 58.0157 51.4961 58.0157 49.0394V10.9606C58.0157 8.50394 56.9764 6.23622 55.3701 4.62992C53.7638 3.02362 51.4961 1.98425 49.0394 1.98425ZM29.8583 13.3228C31.8425 13.3228 33.7323 14.1732 35.0551 15.4961C36.378 16.8189 37.2283 18.7087 37.2283 20.6929C37.2283 22.7717 36.378 24.5669 35.0551 25.8898C33.7323 27.2126 31.8425 28.063 29.8583 28.063C27.7795 28.063 25.9843 27.2126 24.6614 25.8898C23.3386 24.5669 22.4882 22.7717 22.4882 20.6929C22.4882 18.7087 23.3386 16.8189 24.6614 15.4961C25.9843 14.1732 27.7795 13.3228 29.8583 13.3228ZM33.6378 16.9134C32.6929 15.9685 31.2756 15.4016 29.8583 15.4016C28.3465 15.4016 27.0236 15.9685 26.0787 16.9134C25.1339 17.8583 24.4724 19.2756 24.4724 20.6929C24.4724 22.2047 25.1339 23.5276 26.0787 24.4724C27.0236 25.5118 28.3465 26.0787 29.8583 26.0787C31.2756 26.0787 32.6929 25.5118 33.6378 24.4724C34.5827 23.5276 35.1496 22.2047 35.1496 20.6929C35.1496 19.2756 34.5827 17.8583 33.6378 16.9134ZM41.1024 36.2835C38.2677 34.0157 34.3937 32.5984 30.0472 32.5984C25.6063 32.5984 21.7323 34.0157 18.8976 36.2835C16.1575 38.4567 14.5512 41.3858 14.3622 44.5984H45.6378C45.4488 41.3858 43.8425 38.4567 41.1024 36.2835Z"/>
</svg>
