<svg class="header-icon" width="60" height="60" viewBox="0 0 60 60" xmlns="http://www.w3.org/2000/svg">
  <path d="M16.4967 20.3548H17.2949C18.2262 17.561 19.8226 15.0333 21.9512 13.3038C24.3459 11.3082 27.1397 10.2439 30.3326 10.2439C33.3925 10.2439 36.1863 11.3082 38.5809 13.3038C40.7095 15.0333 42.306 17.561 43.2373 20.3548H43.5033C43.7694 20.3548 44.1685 20.4878 44.4346 20.4878C45.3659 20.6208 46.2971 21.153 46.9623 21.8182C47.6275 22.4834 48.0266 23.4146 48.0266 24.4789C48.0266 24.612 48.0266 24.878 48.0266 25.0111L44.0355 45.4989C43.7694 46.6962 43.2373 47.7605 42.439 48.5588C41.6408 49.357 40.7095 49.7561 39.5122 49.7561H20.4878C19.2905 49.7561 18.3592 49.357 17.561 48.5588C16.7628 47.7605 16.2306 46.6962 15.9645 45.4989L11.9734 25.0111C11.9734 24.878 11.9734 24.612 11.9734 24.4789C11.9734 23.4146 12.3725 22.4834 13.0377 21.8182C13.7029 21.153 14.6341 20.6208 15.5654 20.4878C15.8315 20.4878 16.2306 20.3548 16.4967 20.3548ZM11.0421 0H48.9579C52.0177 0 54.8115 1.19734 56.8071 3.1929C58.8027 5.18847 60 7.98226 60 11.0421V48.9579C60 52.0177 58.8027 54.8115 56.8071 56.8071C54.8115 58.8027 52.0177 60 48.9579 60H11.0421C7.98226 60 5.18847 58.8027 3.1929 56.8071C1.19734 54.8115 0 52.0177 0 48.9579V11.0421C0 7.98226 1.19734 5.18847 3.1929 3.1929C5.18847 1.19734 7.98226 0 11.0421 0ZM48.9579 1.99557H11.0421C8.51441 1.99557 6.25277 3.05987 4.65632 4.65632C3.05987 6.25277 1.99557 8.51441 1.99557 11.0421V48.9579C1.99557 51.4856 3.05987 53.7472 4.65632 55.3437C6.25277 56.9401 8.51441 58.0044 11.0421 58.0044H48.9579C51.4856 58.0044 53.7472 56.9401 55.3437 55.3437C56.9401 53.7472 58.0044 51.4856 58.0044 48.9579V11.0421C58.0044 8.51441 56.9401 6.25277 55.3437 4.65632C53.7472 3.05987 51.4856 1.99557 48.9579 1.99557ZM19.4235 20.3548H41.1087C40.3104 18.2262 38.98 16.2306 37.2506 14.7672C35.388 13.1707 32.8603 12.2395 30.3326 12.2395C27.6718 12.2395 25.2772 13.1707 23.2816 14.7672C21.5521 16.2306 20.2217 18.2262 19.4235 20.3548ZM38.714 30.9978V40.3104H36.9845V30.9978H38.714ZM33.6585 30.9978V40.3104H31.929V30.9978H33.6585ZM28.8692 30.9978V40.3104H27.1397V30.9978H28.8692ZM23.8137 30.9978V40.3104H22.0843V30.9978H23.8137ZM43.5033 22.3503H16.7628H16.4967C16.2306 22.3503 16.0976 22.4834 15.9645 22.4834C15.4324 22.6164 14.9002 22.8825 14.5011 23.2816C14.235 23.5477 13.969 23.9468 13.969 24.4789C13.969 24.4789 13.969 24.612 13.969 24.745L17.9601 45.0998C18.0931 45.898 18.4922 46.6962 19.0244 47.0953C19.2905 47.4945 19.8226 47.7605 20.4878 47.7605H39.5122C40.1774 47.7605 40.7095 47.4945 40.9756 47.0953C41.5078 46.6962 41.9069 45.898 42.0399 45.0998L46.031 24.745C46.031 24.612 46.031 24.4789 46.031 24.4789C46.031 23.9468 45.765 23.5477 45.4989 23.2816C45.0998 22.8825 44.5676 22.6164 44.0355 22.4834C43.9024 22.4834 43.7694 22.3503 43.5033 22.3503Z"/>
</svg>
