<svg class="header-icon" width="60" height="60" viewBox="0 0 60 60" xmlns="http://www.w3.org/2000/svg">
  <path d="M30.0282 16.5381C33.7535 16.5381 37.1966 18.0621 39.6237 20.5456C42.1072 22.9727 43.6312 26.4158 43.6312 30.1411C43.6312 33.9229 42.1072 37.3095 39.6237 39.793C39.5108 39.9059 39.3415 40.0188 39.2286 40.1881L44.1957 46.1148L42.6717 47.413L37.6482 41.4299C35.4468 42.8975 32.8504 43.7441 30.0282 43.7441C26.2465 43.7441 22.8598 42.2201 20.3763 39.793C17.9492 37.3095 16.4252 33.9229 16.4252 30.1411C16.4252 26.4158 17.9492 22.9727 20.3763 20.5456C22.8598 18.0621 26.2465 16.5381 30.0282 16.5381ZM11.0066 0H48.9934C52.0414 0 54.8071 1.24177 56.7827 3.21731C58.7582 5.24929 60 7.95861 60 11.0066V48.9934C60 52.0414 58.7582 54.8071 56.7827 56.7827C54.8071 58.7582 52.0414 60 48.9934 60H11.0066C7.95861 60 5.24929 58.7582 3.21731 56.7827C1.24177 54.8071 0 52.0414 0 48.9934V11.0066C0 7.95861 1.24177 5.24929 3.21731 3.21731C5.24929 1.24177 7.95861 0 11.0066 0ZM48.9934 1.97554H11.0066C8.52305 1.97554 6.26529 2.99153 4.62841 4.62841C2.99153 6.26529 1.97554 8.52305 1.97554 11.0066V48.9934C1.97554 51.477 2.99153 53.7347 4.62841 55.3716C6.26529 57.0085 8.52305 58.0245 11.0066 58.0245H48.9934C51.477 58.0245 53.7347 57.0085 55.3716 55.3716C57.0085 53.7347 58.0245 51.477 58.0245 48.9934V11.0066C58.0245 8.52305 57.0085 6.26529 55.3716 4.62841C53.7347 2.99153 51.477 1.97554 48.9934 1.97554ZM38.2126 21.9567C36.1242 19.8683 33.1891 18.5701 30.0282 18.5701C26.8109 18.5701 23.9323 19.8683 21.7874 21.9567C19.699 24.0452 18.4008 26.9238 18.4008 30.1411C18.4008 33.3584 19.699 36.2371 21.7874 38.3819C23.9323 40.4704 26.8109 41.7686 30.0282 41.7686C33.1891 41.7686 36.1242 40.4704 38.2126 38.3819C40.301 36.2371 41.5992 33.3584 41.5992 30.1411C41.5992 26.9238 40.301 24.0452 38.2126 21.9567Z"/>
</svg>
